<mxfile host="65bd71144e">
    <diagram id="DDLdyqKOfE0PQX-NQcUt" name="Page-1">
        <mxGraphModel dx="1793" dy="962" grid="1" gridSize="10" guides="1" tooltips="1" connect="1" arrows="1" fold="1" page="1" pageScale="1" pageWidth="850" pageHeight="1100" math="0" shadow="0">
            <root>
                <mxCell id="0"/>
                <mxCell id="1" parent="0"/>
                <mxCell id="4" value="" style="edgeStyle=none;html=1;" parent="1" source="2" edge="1">
                    <mxGeometry relative="1" as="geometry">
                        <mxPoint x="375" y="120" as="targetPoint"/>
                    </mxGeometry>
                </mxCell>
                <mxCell id="2" value="start" style="strokeWidth=2;html=1;shape=mxgraph.flowchart.terminator;whiteSpace=wrap;" parent="1" vertex="1">
                    <mxGeometry x="325" y="20" width="100" height="60" as="geometry"/>
                </mxCell>
                <mxCell id="50" value="" style="edgeStyle=none;html=1;" parent="1" source="48" target="49" edge="1">
                    <mxGeometry relative="1" as="geometry"/>
                </mxCell>
                <mxCell id="48" value="start" style="strokeWidth=2;html=1;shape=mxgraph.flowchart.terminator;whiteSpace=wrap;" parent="1" vertex="1">
                    <mxGeometry x="2510" y="210" width="100" height="60" as="geometry"/>
                </mxCell>
                <mxCell id="52" value="" style="edgeStyle=none;html=1;" parent="1" source="49" target="51" edge="1">
                    <mxGeometry relative="1" as="geometry"/>
                </mxCell>
                <mxCell id="49" value="N" style="shape=parallelogram;perimeter=parallelogramPerimeter;whiteSpace=wrap;html=1;fixedSize=1;strokeWidth=2;" parent="1" vertex="1">
                    <mxGeometry x="2500" y="350" width="120" height="60" as="geometry"/>
                </mxCell>
                <mxCell id="54" value="" style="edgeStyle=none;html=1;" parent="1" source="51" target="53" edge="1">
                    <mxGeometry relative="1" as="geometry"/>
                </mxCell>
                <mxCell id="51" value="_ = 0" style="whiteSpace=wrap;html=1;strokeWidth=2;" parent="1" vertex="1">
                    <mxGeometry x="2500" y="490" width="120" height="60" as="geometry"/>
                </mxCell>
                <mxCell id="58" style="edgeStyle=none;html=1;entryX=0;entryY=0.5;entryDx=0;entryDy=0;" parent="1" source="53" target="57" edge="1">
                    <mxGeometry relative="1" as="geometry">
                        <Array as="points">
                            <mxPoint x="2560" y="850"/>
                        </Array>
                    </mxGeometry>
                </mxCell>
                <mxCell id="63" style="edgeStyle=none;html=1;entryX=0.5;entryY=0;entryDx=0;entryDy=0;" parent="1" source="53" target="62" edge="1">
                    <mxGeometry relative="1" as="geometry">
                        <Array as="points">
                            <mxPoint x="2450" y="660"/>
                            <mxPoint x="2450" y="960"/>
                            <mxPoint x="2560" y="960"/>
                        </Array>
                    </mxGeometry>
                </mxCell>
                <mxCell id="53" value="_ &amp;lt; N" style="rhombus;whiteSpace=wrap;html=1;strokeWidth=2;" parent="1" vertex="1">
                    <mxGeometry x="2520" y="620" width="80" height="80" as="geometry"/>
                </mxCell>
                <mxCell id="56" style="edgeStyle=none;html=1;" parent="1" source="55" target="53" edge="1">
                    <mxGeometry relative="1" as="geometry"/>
                </mxCell>
                <mxCell id="55" value="_ += 1" style="whiteSpace=wrap;html=1;strokeWidth=2;" parent="1" vertex="1">
                    <mxGeometry x="2890" y="630" width="120" height="60" as="geometry"/>
                </mxCell>
                <mxCell id="57" value="word" style="shape=parallelogram;perimeter=parallelogramPerimeter;whiteSpace=wrap;html=1;fixedSize=1;strokeWidth=2;" parent="1" vertex="1">
                    <mxGeometry x="2890" y="820" width="120" height="60" as="geometry"/>
                </mxCell>
                <mxCell id="61" value="Y" style="text;html=1;align=center;verticalAlign=middle;resizable=0;points=[];autosize=1;strokeColor=none;fillColor=none;" parent="1" vertex="1">
                    <mxGeometry x="2580" y="690" width="20" height="20" as="geometry"/>
                </mxCell>
                <mxCell id="66" value="" style="edgeStyle=none;html=1;" parent="1" source="62" target="65" edge="1">
                    <mxGeometry relative="1" as="geometry"/>
                </mxCell>
                <mxCell id="62" value="cnt = 0" style="whiteSpace=wrap;html=1;strokeWidth=2;" parent="1" vertex="1">
                    <mxGeometry x="2500" y="1020" width="120" height="60" as="geometry"/>
                </mxCell>
                <mxCell id="64" value="N" style="text;html=1;align=center;verticalAlign=middle;resizable=0;points=[];autosize=1;strokeColor=none;fillColor=none;" parent="1" vertex="1">
                    <mxGeometry x="2500" y="670" width="20" height="20" as="geometry"/>
                </mxCell>
                <mxCell id="68" value="" style="edgeStyle=none;html=1;" parent="1" source="65" edge="1">
                    <mxGeometry relative="1" as="geometry">
                        <mxPoint x="2560" y="1300" as="targetPoint"/>
                    </mxGeometry>
                </mxCell>
                <mxCell id="65" value="i = 0" style="whiteSpace=wrap;html=1;strokeWidth=2;" parent="1" vertex="1">
                    <mxGeometry x="2500" y="1160" width="120" height="60" as="geometry"/>
                </mxCell>
                <mxCell id="73" style="edgeStyle=none;html=1;entryX=0;entryY=0.5;entryDx=0;entryDy=0;entryPerimeter=0;" parent="1" source="69" target="72" edge="1">
                    <mxGeometry relative="1" as="geometry">
                        <Array as="points">
                            <mxPoint x="2560" y="1540"/>
                        </Array>
                    </mxGeometry>
                </mxCell>
                <mxCell id="80" style="edgeStyle=none;html=1;" parent="1" source="69" edge="1">
                    <mxGeometry relative="1" as="geometry">
                        <mxPoint x="2560" y="1753.8095238095239" as="targetPoint"/>
                        <Array as="points">
                            <mxPoint x="2420" y="1350"/>
                            <mxPoint x="2420" y="1690"/>
                            <mxPoint x="2560" y="1690"/>
                        </Array>
                    </mxGeometry>
                </mxCell>
                <mxCell id="69" value="i &amp;lt; N" style="strokeWidth=2;html=1;shape=mxgraph.flowchart.decision;whiteSpace=wrap;" parent="1" vertex="1">
                    <mxGeometry x="2510" y="1300" width="100" height="100" as="geometry"/>
                </mxCell>
                <mxCell id="71" style="edgeStyle=none;html=1;entryX=1;entryY=0.5;entryDx=0;entryDy=0;entryPerimeter=0;" parent="1" source="70" target="69" edge="1">
                    <mxGeometry relative="1" as="geometry"/>
                </mxCell>
                <mxCell id="70" value="i += 1" style="whiteSpace=wrap;html=1;strokeWidth=2;" parent="1" vertex="1">
                    <mxGeometry x="2890" y="1320" width="120" height="60" as="geometry"/>
                </mxCell>
                <mxCell id="74" style="edgeStyle=none;html=1;entryX=1;entryY=0.5;entryDx=0;entryDy=0;" parent="1" source="72" target="70" edge="1">
                    <mxGeometry relative="1" as="geometry">
                        <Array as="points">
                            <mxPoint x="3090" y="1540"/>
                            <mxPoint x="3090" y="1350"/>
                        </Array>
                    </mxGeometry>
                </mxCell>
                <mxCell id="77" value="" style="edgeStyle=none;html=1;" parent="1" source="72" target="76" edge="1">
                    <mxGeometry relative="1" as="geometry"/>
                </mxCell>
                <mxCell id="72" value="i &amp;lt; N" style="strokeWidth=2;html=1;shape=mxgraph.flowchart.decision;whiteSpace=wrap;" parent="1" vertex="1">
                    <mxGeometry x="2900" y="1490" width="100" height="100" as="geometry"/>
                </mxCell>
                <mxCell id="75" value="N" style="text;html=1;align=center;verticalAlign=middle;resizable=0;points=[];autosize=1;strokeColor=none;fillColor=none;" parent="1" vertex="1">
                    <mxGeometry x="3000" y="1520" width="20" height="20" as="geometry"/>
                </mxCell>
                <mxCell id="79" style="edgeStyle=none;html=1;" parent="1" source="76" edge="1">
                    <mxGeometry relative="1" as="geometry">
                        <mxPoint x="3070" y="1540" as="targetPoint"/>
                        <Array as="points">
                            <mxPoint x="3070" y="1720"/>
                        </Array>
                    </mxGeometry>
                </mxCell>
                <mxCell id="76" value="cnt += 1" style="whiteSpace=wrap;html=1;strokeWidth=2;" parent="1" vertex="1">
                    <mxGeometry x="2890" y="1690" width="120" height="60" as="geometry"/>
                </mxCell>
                <mxCell id="78" value="Y" style="text;html=1;align=center;verticalAlign=middle;resizable=0;points=[];autosize=1;strokeColor=none;fillColor=none;" parent="1" vertex="1">
                    <mxGeometry x="2960" y="1590" width="20" height="20" as="geometry"/>
                </mxCell>
                <mxCell id="83" style="edgeStyle=none;html=1;entryX=0.5;entryY=0;entryDx=0;entryDy=0;entryPerimeter=0;" parent="1" source="81" target="82" edge="1">
                    <mxGeometry relative="1" as="geometry"/>
                </mxCell>
                <mxCell id="81" value="cnt" style="strokeWidth=2;html=1;shape=mxgraph.flowchart.document2;whiteSpace=wrap;size=0.25;" parent="1" vertex="1">
                    <mxGeometry x="2510" y="1750" width="100" height="60" as="geometry"/>
                </mxCell>
                <mxCell id="82" value="finish" style="strokeWidth=2;html=1;shape=mxgraph.flowchart.terminator;whiteSpace=wrap;" parent="1" vertex="1">
                    <mxGeometry x="2510" y="1950" width="100" height="60" as="geometry"/>
                </mxCell>
                <mxCell id="121" value="" style="edgeStyle=none;html=1;" edge="1" parent="1" source="84" target="120">
                    <mxGeometry relative="1" as="geometry"/>
                </mxCell>
                <mxCell id="84" value="def is_groub_word(word)" style="strokeWidth=2;html=1;shape=mxgraph.flowchart.terminator;whiteSpace=wrap;" parent="1" vertex="1">
                    <mxGeometry x="2510" y="2220" width="170" height="90" as="geometry"/>
                </mxCell>
                <mxCell id="95" value="" style="edgeStyle=none;html=1;" parent="1" source="93" target="94" edge="1">
                    <mxGeometry relative="1" as="geometry"/>
                </mxCell>
                <mxCell id="93" value="N" style="shape=parallelogram;html=1;strokeWidth=2;perimeter=parallelogramPerimeter;whiteSpace=wrap;rounded=1;arcSize=12;size=0.23;" parent="1" vertex="1">
                    <mxGeometry x="320" y="120" width="100" height="60" as="geometry"/>
                </mxCell>
                <mxCell id="97" value="" style="edgeStyle=none;html=1;" parent="1" source="94" target="96" edge="1">
                    <mxGeometry relative="1" as="geometry"/>
                </mxCell>
                <mxCell id="94" value="_ = 0" style="whiteSpace=wrap;html=1;strokeWidth=2;rounded=1;arcSize=12;" parent="1" vertex="1">
                    <mxGeometry x="310" y="260" width="120" height="60" as="geometry"/>
                </mxCell>
                <mxCell id="102" value="" style="edgeStyle=none;html=1;" parent="1" source="96" target="101" edge="1">
                    <mxGeometry relative="1" as="geometry">
                        <Array as="points">
                            <mxPoint x="370" y="590"/>
                        </Array>
                    </mxGeometry>
                </mxCell>
                <mxCell id="96" value="_ &amp;lt; N" style="rhombus;whiteSpace=wrap;html=1;strokeWidth=2;rounded=1;arcSize=12;" parent="1" vertex="1">
                    <mxGeometry x="330" y="390" width="80" height="80" as="geometry"/>
                </mxCell>
                <mxCell id="99" style="edgeStyle=none;html=1;" parent="1" source="98" target="96" edge="1">
                    <mxGeometry relative="1" as="geometry"/>
                </mxCell>
                <mxCell id="98" value="_ += 1" style="whiteSpace=wrap;html=1;strokeWidth=2;rounded=1;arcSize=12;" parent="1" vertex="1">
                    <mxGeometry x="590" y="400" width="120" height="60" as="geometry"/>
                </mxCell>
                <mxCell id="110" value="" style="edgeStyle=none;html=1;" parent="1" source="101" target="109" edge="1">
                    <mxGeometry relative="1" as="geometry"/>
                </mxCell>
                <mxCell id="101" value="word" style="shape=parallelogram;perimeter=parallelogramPerimeter;whiteSpace=wrap;html=1;fixedSize=1;strokeWidth=2;rounded=1;arcSize=12;" parent="1" vertex="1">
                    <mxGeometry x="590" y="560" width="120" height="60" as="geometry"/>
                </mxCell>
                <mxCell id="106" value="" style="edgeStyle=none;html=1;" parent="1" source="103" target="105" edge="1">
                    <mxGeometry relative="1" as="geometry"/>
                </mxCell>
                <mxCell id="103" value="i = 0" style="whiteSpace=wrap;html=1;strokeWidth=2;rounded=1;arcSize=12;" parent="1" vertex="1">
                    <mxGeometry x="590" y="850" width="120" height="60" as="geometry"/>
                </mxCell>
                <mxCell id="113" value="" style="edgeStyle=none;html=1;" parent="1" source="105" target="112" edge="1">
                    <mxGeometry relative="1" as="geometry">
                        <Array as="points">
                            <mxPoint x="650" y="1200"/>
                        </Array>
                    </mxGeometry>
                </mxCell>
                <mxCell id="105" value="len(word)" style="rhombus;whiteSpace=wrap;html=1;strokeWidth=2;rounded=1;arcSize=12;" parent="1" vertex="1">
                    <mxGeometry x="610" y="980" width="80" height="80" as="geometry"/>
                </mxCell>
                <mxCell id="108" style="edgeStyle=none;html=1;" parent="1" source="107" target="105" edge="1">
                    <mxGeometry relative="1" as="geometry"/>
                </mxCell>
                <mxCell id="107" value="i += 1" style="whiteSpace=wrap;html=1;strokeWidth=2;rounded=1;arcSize=12;" parent="1" vertex="1">
                    <mxGeometry x="920" y="990" width="120" height="60" as="geometry"/>
                </mxCell>
                <mxCell id="111" value="" style="edgeStyle=none;html=1;" parent="1" source="109" target="103" edge="1">
                    <mxGeometry relative="1" as="geometry"/>
                </mxCell>
                <mxCell id="109" value="word_list =[False] * 26" style="whiteSpace=wrap;html=1;strokeWidth=2;rounded=1;arcSize=12;" parent="1" vertex="1">
                    <mxGeometry x="580" y="710" width="140" height="70" as="geometry"/>
                </mxCell>
                <mxCell id="115" value="" style="edgeStyle=none;html=1;" parent="1" source="112" target="114" edge="1">
                    <mxGeometry relative="1" as="geometry"/>
                </mxCell>
                <mxCell id="112" value="word_location = ord(word[i]) - 65" style="whiteSpace=wrap;html=1;strokeWidth=2;rounded=1;arcSize=12;" parent="1" vertex="1">
                    <mxGeometry x="875" y="1160" width="210" height="80" as="geometry"/>
                </mxCell>
                <mxCell id="117" value="" style="edgeStyle=none;html=1;" parent="1" source="114" target="116" edge="1">
                    <mxGeometry relative="1" as="geometry"/>
                </mxCell>
                <mxCell id="114" value="word_list[word_location] == True" style="rhombus;whiteSpace=wrap;html=1;strokeWidth=2;rounded=1;arcSize=12;" parent="1" vertex="1">
                    <mxGeometry x="885" y="1310" width="190" height="170" as="geometry"/>
                </mxCell>
                <mxCell id="116" value="&lt;span&gt;word_list[word_location] == True&lt;/span&gt;" style="whiteSpace=wrap;html=1;strokeWidth=2;rounded=1;arcSize=12;" parent="1" vertex="1">
                    <mxGeometry x="1210" y="1347.5" width="190" height="95" as="geometry"/>
                </mxCell>
                <mxCell id="119" value="Y" style="text;html=1;align=center;verticalAlign=middle;resizable=0;points=[];autosize=1;strokeColor=none;fillColor=none;" parent="1" vertex="1">
                    <mxGeometry x="1080" y="1360" width="20" height="20" as="geometry"/>
                </mxCell>
                <mxCell id="202" value="" style="edgeStyle=none;html=1;" edge="1" parent="1" source="120" target="201">
                    <mxGeometry relative="1" as="geometry"/>
                </mxCell>
                <mxCell id="120" value="is_appeared_list = [False] * 26" style="rounded=0;whiteSpace=wrap;html=1;" vertex="1" parent="1">
                    <mxGeometry x="2535" y="2370" width="120" height="60" as="geometry"/>
                </mxCell>
                <mxCell id="129" value="is_appeared_list[chr(char) - 97] = True" style="whiteSpace=wrap;html=1;rounded=0;" vertex="1" parent="1">
                    <mxGeometry x="2150" y="2430" width="270" height="60" as="geometry"/>
                </mxCell>
                <mxCell id="172" value="" style="edgeStyle=none;html=1;" edge="1" parent="1" source="173" target="176">
                    <mxGeometry relative="1" as="geometry"/>
                </mxCell>
                <mxCell id="173" value="i = 1" style="whiteSpace=wrap;html=1;rounded=0;" vertex="1" parent="1">
                    <mxGeometry x="2535" y="2560" width="120" height="60" as="geometry"/>
                </mxCell>
                <mxCell id="174" value="" style="edgeStyle=none;html=1;entryX=0;entryY=0.5;entryDx=0;entryDy=0;" edge="1" parent="1" source="176" target="180">
                    <mxGeometry relative="1" as="geometry">
                        <mxPoint x="2670" y="2850" as="targetPoint"/>
                        <Array as="points">
                            <mxPoint x="2595" y="2850"/>
                        </Array>
                    </mxGeometry>
                </mxCell>
                <mxCell id="175" style="edgeStyle=none;html=1;" edge="1" parent="1" source="176">
                    <mxGeometry relative="1" as="geometry">
                        <mxPoint x="2630" y="3690" as="targetPoint"/>
                        <Array as="points">
                            <mxPoint x="2510" y="2690"/>
                            <mxPoint x="2510" y="3640"/>
                            <mxPoint x="2630" y="3640"/>
                        </Array>
                    </mxGeometry>
                </mxCell>
                <mxCell id="176" value="i &amp;lt; len(word)" style="rhombus;whiteSpace=wrap;html=1;rounded=0;" vertex="1" parent="1">
                    <mxGeometry x="2555" y="2650" width="80" height="80" as="geometry"/>
                </mxCell>
                <mxCell id="177" value="" style="edgeStyle=none;html=1;" edge="1" parent="1" source="178" target="176">
                    <mxGeometry relative="1" as="geometry"/>
                </mxCell>
                <mxCell id="178" value="i += 1" style="whiteSpace=wrap;html=1;rounded=0;" vertex="1" parent="1">
                    <mxGeometry x="2670" y="2660" width="120" height="60" as="geometry"/>
                </mxCell>
                <mxCell id="179" value="" style="edgeStyle=none;html=1;entryX=0.5;entryY=0;entryDx=0;entryDy=0;" edge="1" parent="1" source="180" target="191">
                    <mxGeometry relative="1" as="geometry">
                        <mxPoint x="2760" y="2940" as="targetPoint"/>
                    </mxGeometry>
                </mxCell>
                <mxCell id="180" value="location = chr(word[i]) - 97" style="whiteSpace=wrap;html=1;rounded=0;" vertex="1" parent="1">
                    <mxGeometry x="2670" y="2820" width="180" height="60" as="geometry"/>
                </mxCell>
                <mxCell id="181" value="" style="edgeStyle=none;html=1;" edge="1" parent="1" source="183" target="185">
                    <mxGeometry relative="1" as="geometry">
                        <Array as="points">
                            <mxPoint x="2985" y="3280"/>
                        </Array>
                    </mxGeometry>
                </mxCell>
                <mxCell id="182" value="" style="edgeStyle=none;html=1;" edge="1" parent="1" source="183" target="186">
                    <mxGeometry relative="1" as="geometry">
                        <Array as="points">
                            <mxPoint x="2760" y="3460"/>
                            <mxPoint x="2985" y="3460"/>
                        </Array>
                    </mxGeometry>
                </mxCell>
                <mxCell id="183" value="not is_appeared_list[location]" style="rhombus;whiteSpace=wrap;html=1;" vertex="1" parent="1">
                    <mxGeometry x="2650" y="3240" width="220" height="80" as="geometry"/>
                </mxCell>
                <mxCell id="184" style="edgeStyle=none;html=1;entryX=1;entryY=0.5;entryDx=0;entryDy=0;" edge="1" parent="1" source="185" target="178">
                    <mxGeometry relative="1" as="geometry">
                        <Array as="points">
                            <mxPoint x="2700" y="3380"/>
                            <mxPoint x="2700" y="3540"/>
                            <mxPoint x="2760" y="3540"/>
                            <mxPoint x="2760" y="3610"/>
                            <mxPoint x="3100" y="3610"/>
                            <mxPoint x="3090" y="2690"/>
                        </Array>
                    </mxGeometry>
                </mxCell>
                <mxCell id="185" value="is_appeared_list[location] = True" style="whiteSpace=wrap;html=1;" vertex="1" parent="1">
                    <mxGeometry x="2900" y="3350" width="170" height="60" as="geometry"/>
                </mxCell>
                <mxCell id="186" value="return False" style="whiteSpace=wrap;html=1;" vertex="1" parent="1">
                    <mxGeometry x="2925" y="3490" width="120" height="60" as="geometry"/>
                </mxCell>
                <mxCell id="187" value="N" style="text;html=1;align=center;verticalAlign=middle;resizable=0;points=[];autosize=1;strokeColor=none;fillColor=none;" vertex="1" parent="1">
                    <mxGeometry x="2740" y="3320" width="20" height="20" as="geometry"/>
                </mxCell>
                <mxCell id="188" value="Y" style="text;html=1;align=center;verticalAlign=middle;resizable=0;points=[];autosize=1;strokeColor=none;fillColor=none;" vertex="1" parent="1">
                    <mxGeometry x="2860" y="3260" width="20" height="20" as="geometry"/>
                </mxCell>
                <mxCell id="189" value="" style="edgeStyle=none;html=1;" edge="1" parent="1" source="191" target="183">
                    <mxGeometry relative="1" as="geometry"/>
                </mxCell>
                <mxCell id="190" value="" style="edgeStyle=none;html=1;" edge="1" parent="1" source="191" target="193">
                    <mxGeometry relative="1" as="geometry">
                        <Array as="points">
                            <mxPoint x="2990" y="2980"/>
                        </Array>
                    </mxGeometry>
                </mxCell>
                <mxCell id="191" value="word[i] == word[i - 1]" style="rhombus;whiteSpace=wrap;html=1;" vertex="1" parent="1">
                    <mxGeometry x="2650" y="2940" width="220" height="80" as="geometry"/>
                </mxCell>
                <mxCell id="192" style="edgeStyle=none;html=1;" edge="1" parent="1" source="193">
                    <mxGeometry relative="1" as="geometry">
                        <mxPoint x="2760" y="3580" as="targetPoint"/>
                        <Array as="points">
                            <mxPoint x="2620" y="3110"/>
                            <mxPoint x="2620" y="3580"/>
                        </Array>
                    </mxGeometry>
                </mxCell>
                <mxCell id="193" value="pass" style="whiteSpace=wrap;html=1;" vertex="1" parent="1">
                    <mxGeometry x="2930" y="3080" width="120" height="60" as="geometry"/>
                </mxCell>
                <mxCell id="194" value="Y" style="text;html=1;align=center;verticalAlign=middle;resizable=0;points=[];autosize=1;strokeColor=none;fillColor=none;" vertex="1" parent="1">
                    <mxGeometry x="2870" y="2950" width="20" height="20" as="geometry"/>
                </mxCell>
                <mxCell id="195" value="N" style="text;html=1;align=center;verticalAlign=middle;resizable=0;points=[];autosize=1;strokeColor=none;fillColor=none;" vertex="1" parent="1">
                    <mxGeometry x="2735" y="3020" width="20" height="20" as="geometry"/>
                </mxCell>
                <mxCell id="196" value="" style="edgeStyle=none;html=1;" edge="1" parent="1" source="197" target="198">
                    <mxGeometry relative="1" as="geometry"/>
                </mxCell>
                <mxCell id="197" value="return True" style="whiteSpace=wrap;html=1;" vertex="1" parent="1">
                    <mxGeometry x="2570" y="3690" width="120" height="60" as="geometry"/>
                </mxCell>
                <mxCell id="198" value="End" style="ellipse;whiteSpace=wrap;html=1;" vertex="1" parent="1">
                    <mxGeometry x="2570" y="3800" width="120" height="60" as="geometry"/>
                </mxCell>
                <mxCell id="203" value="" style="edgeStyle=none;html=1;" edge="1" parent="1" source="201" target="173">
                    <mxGeometry relative="1" as="geometry"/>
                </mxCell>
                <mxCell id="201" value="word = '_' + word" style="whiteSpace=wrap;html=1;rounded=0;" vertex="1" parent="1">
                    <mxGeometry x="2530" y="2460" width="125" height="60" as="geometry"/>
                </mxCell>
                <mxCell id="204" value="Y" style="text;html=1;align=center;verticalAlign=middle;resizable=0;points=[];autosize=1;strokeColor=none;fillColor=none;" vertex="1" parent="1">
                    <mxGeometry x="2570" y="2730" width="20" height="20" as="geometry"/>
                </mxCell>
                <mxCell id="205" value="N" style="text;html=1;align=center;verticalAlign=middle;resizable=0;points=[];autosize=1;strokeColor=none;fillColor=none;" vertex="1" parent="1">
                    <mxGeometry x="2530" y="2670" width="20" height="20" as="geometry"/>
                </mxCell>
            </root>
        </mxGraphModel>
    </diagram>
</mxfile>